<svg width="87" height="10" viewBox="0 0 87 10" fill="none" xmlns="http://www.w3.org/2000/svg">
<path d="M3.54 9.096C2.596 9.096 1.86 8.872 1.332 8.424C0.804 7.968 0.54 7.34 0.54 6.54V0.972C0.54 0.708 0.78 0.576 1.26 0.576H1.68C2.16 0.576 2.4 0.708 2.4 0.972V6.42C2.4 6.764 2.5 7.036 2.7 7.236C2.9 7.428 3.18 7.524 3.54 7.524C3.892 7.524 4.168 7.428 4.368 7.236C4.576 7.036 4.68 6.764 4.68 6.42V0.972C4.68 0.708 4.92 0.576 5.4 0.576H5.82C6.3 0.576 6.54 0.708 6.54 0.972V6.54C6.54 7.34 6.276 7.968 5.748 8.424C5.22 8.872 4.484 9.096 3.54 9.096ZM8.29013 9.024C8.03413 9.024 7.84613 8.992 7.72613 8.928C7.61413 8.856 7.55813 8.756 7.55813 8.628V4.812C7.55813 4.46 7.54613 4.18 7.52213 3.972C7.50613 3.756 7.48613 3.588 7.46213 3.468C7.44613 3.348 7.43813 3.244 7.43813 3.156C7.43813 3.068 7.49413 2.996 7.60613 2.94C7.72613 2.884 7.86613 2.844 8.02613 2.82C8.19413 2.788 8.35013 2.768 8.49413 2.76C8.64613 2.744 8.75413 2.736 8.81813 2.736C8.96213 2.736 9.05813 2.788 9.10613 2.892C9.15413 2.996 9.21013 3.212 9.27413 3.54C9.45013 3.316 9.67813 3.108 9.95813 2.916C10.2461 2.724 10.5781 2.628 10.9541 2.628C11.4341 2.628 11.8021 2.772 12.0581 3.06C12.3141 3.34 12.4421 3.752 12.4421 4.296V8.628C12.4421 8.756 12.3821 8.856 12.2621 8.928C12.1501 8.992 11.9661 9.024 11.7101 9.024H11.3741C11.1181 9.024 10.9301 8.992 10.8101 8.928C10.6981 8.856 10.6421 8.756 10.6421 8.628V4.656C10.6421 4.472 10.6021 4.332 10.5221 4.236C10.4421 4.14 10.2981 4.092 10.0901 4.092C9.96213 4.092 9.83013 4.128 9.69413 4.2C9.55813 4.272 9.44613 4.364 9.35813 4.476V8.628C9.35813 8.756 9.29813 8.856 9.17813 8.928C9.06613 8.992 8.88213 9.024 8.62613 9.024H8.29013ZM14.1143 9.024C13.8583 9.024 13.6703 8.992 13.5503 8.928C13.4383 8.856 13.3823 8.756 13.3823 8.628V3.096C13.3823 2.968 13.4383 2.872 13.5503 2.808C13.6703 2.736 13.8583 2.7 14.1143 2.7H14.4503C14.7063 2.7 14.8903 2.736 15.0023 2.808C15.1223 2.872 15.1823 2.968 15.1823 3.096V8.628C15.1823 8.756 15.1223 8.856 15.0023 8.928C14.8903 8.992 14.7063 9.024 14.4503 9.024H14.1143ZM14.2943 2.112C13.9823 2.112 13.7543 2.08 13.6103 2.016C13.4743 1.952 13.4063 1.856 13.4063 1.728V0.792C13.4063 0.664 13.4743 0.568 13.6103 0.504C13.7543 0.44 13.9823 0.408 14.2943 0.408C14.6063 0.408 14.8303 0.44 14.9663 0.504C15.1103 0.568 15.1823 0.664 15.1823 0.792V1.728C15.1823 1.856 15.1103 1.952 14.9663 2.016C14.8303 2.08 14.6063 2.112 14.2943 2.112ZM18.488 9.096C17.72 9.096 17.12 8.828 16.688 8.292C16.256 7.756 16.04 6.944 16.04 5.856C16.04 4.792 16.244 3.988 16.652 3.444C17.068 2.9 17.68 2.628 18.488 2.628C18.72 2.628 18.952 2.652 19.184 2.7C19.416 2.748 19.608 2.816 19.76 2.904C19.92 2.984 20 3.08 20 3.192C20 3.288 19.984 3.412 19.952 3.564C19.928 3.716 19.888 3.856 19.832 3.984C19.776 4.104 19.708 4.164 19.628 4.164C19.524 4.164 19.404 4.144 19.268 4.104C19.14 4.056 18.984 4.032 18.8 4.032C18.456 4.032 18.212 4.16 18.068 4.416C17.932 4.672 17.864 5.152 17.864 5.856C17.864 6.56 17.932 7.044 18.068 7.308C18.212 7.564 18.456 7.692 18.8 7.692C19 7.692 19.184 7.664 19.352 7.608C19.52 7.552 19.656 7.524 19.76 7.524C19.84 7.524 19.9 7.584 19.94 7.704C19.988 7.824 20.02 7.964 20.036 8.124C20.052 8.276 20.06 8.4 20.06 8.496C20.06 8.608 19.976 8.712 19.808 8.808C19.648 8.896 19.448 8.964 19.208 9.012C18.968 9.068 18.728 9.096 18.488 9.096ZM22.1854 9.096C21.6174 9.096 21.1854 8.924 20.8894 8.58C20.5934 8.236 20.4454 7.78 20.4454 7.212C20.4454 6.98 20.4774 6.736 20.5414 6.48C20.6054 6.224 20.7374 5.984 20.9374 5.76C21.1374 5.528 21.4374 5.34 21.8374 5.196C22.2374 5.052 22.7694 4.98 23.4334 4.98V4.788C23.4334 4.532 23.3734 4.344 23.2534 4.224C23.1414 4.096 22.9574 4.032 22.7014 4.032C22.4214 4.032 22.1654 4.064 21.9334 4.128C21.7094 4.192 21.5214 4.256 21.3694 4.32C21.2174 4.384 21.1054 4.416 21.0334 4.416C20.9534 4.416 20.8894 4.356 20.8414 4.236C20.7934 4.108 20.7574 3.964 20.7334 3.804C20.7174 3.644 20.7094 3.516 20.7094 3.42C20.7094 3.3 20.8134 3.18 21.0214 3.06C21.2294 2.94 21.4974 2.84 21.8254 2.76C22.1534 2.672 22.4894 2.628 22.8334 2.628C23.4254 2.628 23.8934 2.716 24.2374 2.892C24.5894 3.068 24.8414 3.312 24.9934 3.624C25.1534 3.936 25.2334 4.296 25.2334 4.704V6.924C25.2334 7.276 25.2414 7.556 25.2574 7.764C25.2814 7.972 25.3014 8.14 25.3174 8.268C25.3414 8.388 25.3534 8.492 25.3534 8.58C25.3534 8.668 25.2934 8.74 25.1734 8.796C25.0614 8.852 24.9254 8.896 24.7654 8.928C24.6054 8.96 24.4534 8.984 24.3094 9C24.1734 9.008 24.0814 9.012 24.0334 9.012C23.8814 9.012 23.7774 8.972 23.7214 8.892C23.6654 8.804 23.6134 8.64 23.5654 8.4C23.4774 8.536 23.3174 8.688 23.0854 8.856C22.8614 9.016 22.5614 9.096 22.1854 9.096ZM22.8214 7.812C23.1014 7.812 23.3054 7.68 23.4334 7.416V6.012C22.9934 6.012 22.6814 6.112 22.4974 6.312C22.3214 6.512 22.2334 6.768 22.2334 7.08C22.2334 7.296 22.2814 7.472 22.3774 7.608C22.4814 7.744 22.6294 7.812 22.8214 7.812ZM26.8995 9.024C26.6435 9.024 26.4555 8.992 26.3355 8.928C26.2235 8.856 26.1675 8.756 26.1675 8.628V4.812C26.1675 4.46 26.1555 4.18 26.1315 3.972C26.1155 3.756 26.0955 3.588 26.0715 3.468C26.0555 3.348 26.0475 3.244 26.0475 3.156C26.0475 3.068 26.0995 2.996 26.2035 2.94C26.3155 2.884 26.4475 2.844 26.5995 2.82C26.7595 2.788 26.9075 2.768 27.0435 2.76C27.1875 2.744 27.2915 2.736 27.3555 2.736C27.5075 2.736 27.6035 2.796 27.6435 2.916C27.6915 3.028 27.7555 3.28 27.8355 3.672C27.9155 3.368 28.0675 3.12 28.2915 2.928C28.5235 2.728 28.7555 2.628 28.9875 2.628C29.1715 2.628 29.2915 2.672 29.3475 2.76C29.4035 2.848 29.4315 2.98 29.4315 3.156C29.4315 3.22 29.4235 3.324 29.4075 3.468C29.3915 3.612 29.3675 3.764 29.3355 3.924C29.3115 4.076 29.2715 4.208 29.2155 4.32C29.1675 4.424 29.1075 4.476 29.0355 4.476C28.9555 4.476 28.8715 4.456 28.7835 4.416C28.7035 4.368 28.5995 4.344 28.4715 4.344C28.2555 4.344 28.0875 4.436 27.9675 4.62V8.628C27.9675 8.756 27.9075 8.856 27.7875 8.928C27.6755 8.992 27.4915 9.024 27.2355 9.024H26.8995ZM32.3106 9.096C31.3666 9.096 30.6786 8.824 30.2466 8.28C29.8146 7.728 29.5986 6.936 29.5986 5.904C29.5986 5.072 29.7026 4.42 29.9106 3.948C30.1266 3.468 30.4226 3.128 30.7986 2.928C31.1746 2.728 31.6066 2.628 32.0946 2.628C32.9026 2.628 33.4746 2.912 33.8106 3.48C34.1546 4.048 34.3266 4.836 34.3266 5.844C34.3266 6.084 34.2826 6.264 34.1946 6.384C34.1146 6.504 33.9746 6.564 33.7746 6.564H31.4226C31.4226 6.98 31.5146 7.272 31.6986 7.44C31.8906 7.608 32.1226 7.692 32.3946 7.692C32.6346 7.692 32.8466 7.664 33.0306 7.608C33.2146 7.552 33.3706 7.496 33.4986 7.44C33.6346 7.384 33.7386 7.356 33.8106 7.356C33.8906 7.356 33.9546 7.412 34.0026 7.524C34.0586 7.636 34.0986 7.764 34.1226 7.908C34.1546 8.052 34.1706 8.168 34.1706 8.256C34.1706 8.384 34.1026 8.5 33.9666 8.604C33.8306 8.708 33.6586 8.8 33.4506 8.88C33.2506 8.952 33.0466 9.004 32.8386 9.036C32.6306 9.076 32.4546 9.096 32.3106 9.096ZM31.3986 5.496H32.7066C32.7066 4.928 32.6586 4.524 32.5626 4.284C32.4746 4.036 32.3146 3.912 32.0826 3.912C31.8906 3.912 31.7266 4.02 31.5906 4.236C31.4626 4.452 31.3986 4.872 31.3986 5.496ZM38.7404 9.024C38.2604 9.024 38.0204 8.892 38.0204 8.628V2.172H36.6764C36.4364 2.172 36.3164 1.972 36.3164 1.572V1.2C36.3164 0.799999 36.4364 0.599999 36.6764 0.599999H41.2244C41.4644 0.599999 41.5844 0.799999 41.5844 1.2V1.572C41.5844 1.972 41.4644 2.172 41.2244 2.172H39.8804V8.628C39.8804 8.892 39.6404 9.024 39.1604 9.024H38.7404ZM42.087 9.024C41.831 9.024 41.643 8.992 41.523 8.928C41.411 8.856 41.355 8.756 41.355 8.628V4.812C41.355 4.46 41.343 4.18 41.319 3.972C41.303 3.756 41.283 3.588 41.259 3.468C41.243 3.348 41.235 3.244 41.235 3.156C41.235 3.068 41.287 2.996 41.391 2.94C41.503 2.884 41.635 2.844 41.787 2.82C41.947 2.788 42.095 2.768 42.231 2.76C42.375 2.744 42.479 2.736 42.543 2.736C42.695 2.736 42.791 2.796 42.831 2.916C42.879 3.028 42.943 3.28 43.023 3.672C43.103 3.368 43.255 3.12 43.479 2.928C43.711 2.728 43.943 2.628 44.175 2.628C44.359 2.628 44.479 2.672 44.535 2.76C44.591 2.848 44.619 2.98 44.619 3.156C44.619 3.22 44.611 3.324 44.595 3.468C44.579 3.612 44.555 3.764 44.523 3.924C44.499 4.076 44.459 4.208 44.403 4.32C44.355 4.424 44.295 4.476 44.223 4.476C44.143 4.476 44.059 4.456 43.971 4.416C43.891 4.368 43.787 4.344 43.659 4.344C43.443 4.344 43.275 4.436 43.155 4.62V8.628C43.155 8.756 43.095 8.856 42.975 8.928C42.863 8.992 42.679 9.024 42.423 9.024H42.087ZM47.4981 9.096C46.5541 9.096 45.8661 8.824 45.4341 8.28C45.0021 7.728 44.7861 6.936 44.7861 5.904C44.7861 5.072 44.8901 4.42 45.0981 3.948C45.3141 3.468 45.6101 3.128 45.9861 2.928C46.3621 2.728 46.7941 2.628 47.2821 2.628C48.0901 2.628 48.6621 2.912 48.9981 3.48C49.3421 4.048 49.5141 4.836 49.5141 5.844C49.5141 6.084 49.4701 6.264 49.3821 6.384C49.3021 6.504 49.1621 6.564 48.9621 6.564H46.6101C46.6101 6.98 46.7021 7.272 46.8861 7.44C47.0781 7.608 47.3101 7.692 47.5821 7.692C47.8221 7.692 48.0341 7.664 48.2181 7.608C48.4021 7.552 48.5581 7.496 48.6861 7.44C48.8221 7.384 48.9261 7.356 48.9981 7.356C49.0781 7.356 49.1421 7.412 49.1901 7.524C49.2461 7.636 49.2861 7.764 49.3101 7.908C49.3421 8.052 49.3581 8.168 49.3581 8.256C49.3581 8.384 49.2901 8.5 49.1541 8.604C49.0181 8.708 48.8461 8.8 48.6381 8.88C48.4381 8.952 48.2341 9.004 48.0261 9.036C47.8181 9.076 47.6421 9.096 47.4981 9.096ZM46.5861 5.496H47.8941C47.8941 4.928 47.8461 4.524 47.7501 4.284C47.6621 4.036 47.5021 3.912 47.2701 3.912C47.0781 3.912 46.9141 4.02 46.7781 4.236C46.6501 4.452 46.5861 4.872 46.5861 5.496ZM51.9393 9.096C51.3713 9.096 50.9393 8.924 50.6433 8.58C50.3473 8.236 50.1993 7.78 50.1993 7.212C50.1993 6.98 50.2313 6.736 50.2953 6.48C50.3593 6.224 50.4913 5.984 50.6913 5.76C50.8913 5.528 51.1913 5.34 51.5913 5.196C51.9913 5.052 52.5233 4.98 53.1873 4.98V4.788C53.1873 4.532 53.1273 4.344 53.0073 4.224C52.8953 4.096 52.7113 4.032 52.4553 4.032C52.1753 4.032 51.9193 4.064 51.6873 4.128C51.4633 4.192 51.2753 4.256 51.1233 4.32C50.9713 4.384 50.8593 4.416 50.7873 4.416C50.7073 4.416 50.6433 4.356 50.5953 4.236C50.5473 4.108 50.5113 3.964 50.4873 3.804C50.4713 3.644 50.4633 3.516 50.4633 3.42C50.4633 3.3 50.5673 3.18 50.7753 3.06C50.9833 2.94 51.2513 2.84 51.5793 2.76C51.9073 2.672 52.2433 2.628 52.5873 2.628C53.1793 2.628 53.6473 2.716 53.9913 2.892C54.3433 3.068 54.5953 3.312 54.7473 3.624C54.9073 3.936 54.9873 4.296 54.9873 4.704V6.924C54.9873 7.276 54.9953 7.556 55.0113 7.764C55.0353 7.972 55.0553 8.14 55.0713 8.268C55.0953 8.388 55.1073 8.492 55.1073 8.58C55.1073 8.668 55.0473 8.74 54.9273 8.796C54.8153 8.852 54.6793 8.896 54.5193 8.928C54.3593 8.96 54.2073 8.984 54.0633 9C53.9273 9.008 53.8353 9.012 53.7873 9.012C53.6353 9.012 53.5313 8.972 53.4753 8.892C53.4193 8.804 53.3673 8.64 53.3193 8.4C53.2313 8.536 53.0713 8.688 52.8393 8.856C52.6153 9.016 52.3153 9.096 51.9393 9.096ZM52.5753 7.812C52.8553 7.812 53.0593 7.68 53.1873 7.416V6.012C52.7473 6.012 52.4353 6.112 52.2513 6.312C52.0753 6.512 51.9873 6.768 51.9873 7.08C51.9873 7.296 52.0353 7.472 52.1313 7.608C52.2353 7.744 52.3833 7.812 52.5753 7.812ZM57.6014 9.096C56.5614 9.096 56.0414 8.512 56.0414 7.344V4.128H55.7774C55.5374 4.128 55.4174 3.928 55.4174 3.528V3.324C55.4174 2.924 55.5374 2.724 55.7774 2.724H56.0414L56.2334 1.584C56.2814 1.328 56.4854 1.2 56.8454 1.2H57.2414C57.6414 1.2 57.8414 1.328 57.8414 1.584V2.724H58.3574C58.5974 2.724 58.7174 2.924 58.7174 3.324V3.528C58.7174 3.928 58.5974 4.128 58.3574 4.128H57.8414V7.176C57.8414 7.352 57.8614 7.484 57.9014 7.572C57.9494 7.652 58.0374 7.692 58.1654 7.692C58.2534 7.692 58.3214 7.684 58.3694 7.668C58.4174 7.652 58.4694 7.644 58.5254 7.644C58.5974 7.644 58.6574 7.7 58.7054 7.812C58.7534 7.924 58.7894 8.048 58.8134 8.184C58.8374 8.32 58.8494 8.424 58.8494 8.496C58.8494 8.616 58.7854 8.724 58.6574 8.82C58.5374 8.908 58.3814 8.976 58.1894 9.024C58.0054 9.072 57.8094 9.096 57.6014 9.096ZM60.1104 9.024C59.8544 9.024 59.6664 8.992 59.5464 8.928C59.4344 8.856 59.3784 8.756 59.3784 8.628V4.812C59.3784 4.46 59.3664 4.18 59.3424 3.972C59.3264 3.756 59.3064 3.588 59.2824 3.468C59.2664 3.348 59.2584 3.244 59.2584 3.156C59.2584 3.068 59.3144 2.996 59.4264 2.94C59.5464 2.884 59.6864 2.844 59.8464 2.82C60.0144 2.788 60.1704 2.768 60.3144 2.76C60.4664 2.744 60.5744 2.736 60.6384 2.736C60.7824 2.736 60.8784 2.788 60.9264 2.892C60.9744 2.996 61.0304 3.212 61.0944 3.54C61.2704 3.316 61.4864 3.108 61.7424 2.916C61.9984 2.724 62.2984 2.628 62.6424 2.628C63.3864 2.628 63.8464 2.948 64.0224 3.588C64.1824 3.348 64.3984 3.128 64.6704 2.928C64.9424 2.728 65.2504 2.628 65.5944 2.628C66.0744 2.628 66.4424 2.772 66.6984 3.06C66.9544 3.34 67.0824 3.752 67.0824 4.296V8.628C67.0824 8.756 67.0224 8.856 66.9024 8.928C66.7904 8.992 66.6064 9.024 66.3504 9.024H66.0144C65.7584 9.024 65.5704 8.992 65.4504 8.928C65.3384 8.856 65.2824 8.756 65.2824 8.628V4.656C65.2824 4.472 65.2464 4.332 65.1744 4.236C65.1104 4.14 64.9864 4.092 64.8024 4.092C64.5704 4.092 64.3464 4.216 64.1304 4.464V8.628C64.1304 8.756 64.0704 8.856 63.9504 8.928C63.8384 8.992 63.6544 9.024 63.3984 9.024H63.0624C62.8064 9.024 62.6184 8.992 62.4984 8.928C62.3864 8.856 62.3304 8.756 62.3304 8.628V4.656C62.3304 4.472 62.2944 4.332 62.2224 4.236C62.1584 4.14 62.0344 4.092 61.8504 4.092C61.7384 4.092 61.6184 4.128 61.4904 4.2C61.3704 4.272 61.2664 4.364 61.1784 4.476V8.628C61.1784 8.756 61.1184 8.856 60.9984 8.928C60.8864 8.992 60.7024 9.024 60.4464 9.024H60.1104ZM70.6192 9.096C69.6752 9.096 68.9872 8.824 68.5552 8.28C68.1232 7.728 67.9072 6.936 67.9072 5.904C67.9072 5.072 68.0112 4.42 68.2192 3.948C68.4352 3.468 68.7312 3.128 69.1072 2.928C69.4832 2.728 69.9152 2.628 70.4032 2.628C71.2112 2.628 71.7832 2.912 72.1192 3.48C72.4632 4.048 72.6352 4.836 72.6352 5.844C72.6352 6.084 72.5912 6.264 72.5032 6.384C72.4232 6.504 72.2832 6.564 72.0832 6.564H69.7312C69.7312 6.98 69.8232 7.272 70.0072 7.44C70.1992 7.608 70.4312 7.692 70.7032 7.692C70.9432 7.692 71.1552 7.664 71.3392 7.608C71.5232 7.552 71.6792 7.496 71.8072 7.44C71.9432 7.384 72.0472 7.356 72.1192 7.356C72.1992 7.356 72.2632 7.412 72.3112 7.524C72.3672 7.636 72.4072 7.764 72.4312 7.908C72.4632 8.052 72.4792 8.168 72.4792 8.256C72.4792 8.384 72.4112 8.5 72.2752 8.604C72.1392 8.708 71.9672 8.8 71.7592 8.88C71.5592 8.952 71.3552 9.004 71.1472 9.036C70.9392 9.076 70.7632 9.096 70.6192 9.096ZM69.7072 5.496H71.0152C71.0152 4.928 70.9672 4.524 70.8712 4.284C70.7832 4.036 70.6232 3.912 70.3912 3.912C70.1992 3.912 70.0352 4.02 69.8992 4.236C69.7712 4.452 69.7072 4.872 69.7072 5.496ZM74.1964 9.024C73.9404 9.024 73.7524 8.992 73.6324 8.928C73.5204 8.856 73.4644 8.756 73.4644 8.628V4.812C73.4644 4.46 73.4524 4.18 73.4284 3.972C73.4124 3.756 73.3924 3.588 73.3684 3.468C73.3524 3.348 73.3444 3.244 73.3444 3.156C73.3444 3.068 73.4004 2.996 73.5124 2.94C73.6324 2.884 73.7724 2.844 73.9324 2.82C74.1004 2.788 74.2564 2.768 74.4004 2.76C74.5524 2.744 74.6604 2.736 74.7244 2.736C74.8684 2.736 74.9644 2.788 75.0124 2.892C75.0604 2.996 75.1164 3.212 75.1804 3.54C75.3564 3.316 75.5844 3.108 75.8644 2.916C76.1524 2.724 76.4844 2.628 76.8604 2.628C77.3404 2.628 77.7084 2.772 77.9644 3.06C78.2204 3.34 78.3484 3.752 78.3484 4.296V8.628C78.3484 8.756 78.2884 8.856 78.1684 8.928C78.0564 8.992 77.8724 9.024 77.6164 9.024H77.2804C77.0244 9.024 76.8364 8.992 76.7164 8.928C76.6044 8.856 76.5484 8.756 76.5484 8.628V4.656C76.5484 4.472 76.5084 4.332 76.4284 4.236C76.3484 4.14 76.2044 4.092 75.9964 4.092C75.8684 4.092 75.7364 4.128 75.6004 4.2C75.4644 4.272 75.3524 4.364 75.2644 4.476V8.628C75.2644 8.756 75.2044 8.856 75.0844 8.928C74.9724 8.992 74.7884 9.024 74.5324 9.024H74.1964ZM80.9686 9.096C79.9286 9.096 79.4086 8.512 79.4086 7.344V4.128H79.1446C78.9046 4.128 78.7846 3.928 78.7846 3.528V3.324C78.7846 2.924 78.9046 2.724 79.1446 2.724H79.4086L79.6006 1.584C79.6486 1.328 79.8526 1.2 80.2126 1.2H80.6086C81.0086 1.2 81.2086 1.328 81.2086 1.584V2.724H81.7246C81.9646 2.724 82.0846 2.924 82.0846 3.324V3.528C82.0846 3.928 81.9646 4.128 81.7246 4.128H81.2086V7.176C81.2086 7.352 81.2286 7.484 81.2686 7.572C81.3166 7.652 81.4046 7.692 81.5326 7.692C81.6206 7.692 81.6886 7.684 81.7366 7.668C81.7846 7.652 81.8366 7.644 81.8926 7.644C81.9646 7.644 82.0246 7.7 82.0726 7.812C82.1206 7.924 82.1566 8.048 82.1806 8.184C82.2046 8.32 82.2166 8.424 82.2166 8.496C82.2166 8.616 82.1526 8.724 82.0246 8.82C81.9046 8.908 81.7486 8.976 81.5566 9.024C81.3726 9.072 81.1766 9.096 80.9686 9.096ZM84.2096 9.096C83.9616 9.096 83.7056 9.064 83.4416 9C83.1776 8.944 82.9576 8.86 82.7816 8.748C82.6056 8.628 82.5176 8.484 82.5176 8.316C82.5176 8.204 82.5536 8.072 82.6256 7.92C82.7056 7.76 82.7936 7.62 82.8896 7.5C82.9936 7.38 83.0856 7.32 83.1656 7.32C83.2136 7.32 83.2736 7.348 83.3456 7.404C83.4256 7.452 83.5216 7.504 83.6336 7.56C83.7456 7.616 83.8736 7.644 84.0176 7.644C84.4176 7.644 84.6176 7.496 84.6176 7.2C84.6176 6.984 84.5256 6.824 84.3416 6.72C84.1656 6.608 83.9616 6.484 83.7296 6.348C83.5616 6.244 83.3896 6.124 83.2136 5.988C83.0456 5.852 82.9016 5.672 82.7816 5.448C82.6616 5.216 82.6016 4.92 82.6016 4.56C82.6016 3.944 82.7856 3.468 83.1536 3.132C83.5216 2.796 83.9976 2.628 84.5816 2.628C84.7816 2.628 85.0016 2.652 85.2416 2.7C85.4816 2.74 85.6896 2.812 85.8656 2.916C86.0496 3.012 86.1416 3.148 86.1416 3.324C86.1416 3.42 86.1136 3.544 86.0576 3.696C86.0096 3.848 85.9456 3.988 85.8656 4.116C85.7936 4.236 85.7216 4.296 85.6496 4.296C85.5936 4.296 85.4976 4.26 85.3616 4.188C85.2336 4.116 85.0736 4.08 84.8816 4.08C84.7056 4.08 84.5616 4.112 84.4496 4.176C84.3376 4.24 84.2816 4.344 84.2816 4.488C84.2816 4.624 84.3296 4.74 84.4256 4.836C84.5296 4.924 84.6576 5.008 84.8096 5.088C84.9696 5.16 85.1296 5.248 85.2896 5.352C85.4496 5.456 85.6056 5.58 85.7576 5.724C85.9176 5.868 86.0456 6.048 86.1416 6.264C86.2456 6.472 86.2976 6.74 86.2976 7.068C86.2976 7.652 86.1136 8.136 85.7456 8.52C85.3856 8.904 84.8736 9.096 84.2096 9.096Z" fill="#004953"/>
</svg>
